PathFileType	4	(X/Y/Z)	/Users/itak/Documents/Research/Walk-IL/dataset/trc/00532_00183.trc
DataRate	CameraRate	NumFrames	NumMarkers	Units	OrigDataRate	OrigDataStartFrame	OrigNumFrames
100.000000	100.000000	4	53	mm	100.000000	247	495
Frame#	Time	RPSI			LPSI			L3			STRN			T10			C7			CLAV			RBAK			LBAK			LSHO			LUPA			LAEL			LAOL			LWTS			LWPS			LFRA			LIFD			LHPS			LHTS			RSHO			RUPA			RAEL			RAOL			RWTS			RWPS			RFRA			RIFD			RHTS			RHPS			RBHD			LFHD			RFHD			LBHD			LHIP			RHIP			RASI			LASI			LKNE			LTHI			LANK			LTIP			LTOE			LMT1			LMT5			LHEE			RKNE			RTHI			RANK			RTIP			RTOE			RMT1			RMT5			RHEE			
		X1	Y1	Z1	X2	Y2	Z2	X3	Y3	Z3	X4	Y4	Z4	X5	Y5	Z5	X6	Y6	Z6	X7	Y7	Z7	X8	Y8	Z8	X9	Y9	Z9	X10	Y10	Z10	X11	Y11	Z11	X12	Y12	Z12	X13	Y13	Z13	X14	Y14	Z14	X15	Y15	Z15	X16	Y16	Z16	X17	Y17	Z17	X18	Y18	Z18	X19	Y19	Z19	X20	Y20	Z20	X21	Y21	Z21	X22	Y22	Z22	X23	Y23	Z23	X24	Y24	Z24	X25	Y25	Z25	X26	Y26	Z26	X27	Y27	Z27	X28	Y28	Z28	X29	Y29	Z29	X30	Y30	Z30	X31	Y31	Z31	X32	Y32	Z32	X33	Y33	Z33	X34	Y34	Z34	X35	Y35	Z35	X36	Y36	Z36	X37	Y37	Z37	X38	Y38	Z38	X39	Y39	Z39	X40	Y40	Z40	X41	Y41	Z41	X42	Y42	Z42	X43	Y43	Z43	X44	Y44	Z44	X45	Y45	Z45	X46	Y46	Z46	X47	Y47	Z47	X48	Y48	Z48	X49	Y49	Z49	X50	Y50	Z50	X51	Y51	Z51	X52	Y52	Z52	X53	Y53	Z53	

248	2.47	-274.9833984375	939.8765869140625	-10.97338104248047	-202.8245849609375	950.9320068359375	-111.3704147338867	-242.0670471191406	1022.485595703125	-58.07562637329102	-54.60973739624023	1192.09130859375	46.00585174560547	-258.3501586914062	1126.275634765625	-57.57645797729492	-231.628173828125	1357.142456054688	-36.04747009277344	-90.21659851074219	1285.283813476562	28.82917785644531	-307.9496154785156	1232.532958984375	20.45466804504395	-215.5554962158203	1303.666015625	-125.1706466674805	-100.3849105834961	1352.95263671875	-151.9181976318359	-90.27915191650391	1227.178955078125	-214.2332611083984	-84.03020477294922	1017.75634765625	-239.6332397460938	-174.3279876708984	1012.822143554688	-198.5083618164062	-36.23171234130859	819.4102172851562	-184.3242950439453	-93.44997406005859	795.4886474609375	-255.0980682373047	-74.97357940673828	931.6117553710938	-240.0406036376953	-47.93019866943359	663.4241943359375	-189.2030639648438	-77.177734375	738.3006591796875	-244.9904327392578	-25.8448543548584	742.79736328125	-206.1821441650391	-246.6614532470703	1351.08984375	121.5881652832031	-285.9910583496094	1282.267944335938	163.6866149902344	-300.7620849609375	1015.009643554688	202.7113647460938	-323.5545349121094	999.979736328125	142.0217437744141	-204.4497528076172	814.4234008789062	236.3613128662109	-291.8410949707031	791.318603515625	223.3990783691406	-301.330322265625	961.116455078125	210.9333953857422	-204.8166656494141	654.0086059570312	242.5281372070312	-208.0643005371094	721.5208740234375	265.026611328125	-273.6442565917969	718.1575927734375	238.7098388671875	-217.2175140380859	1519.464965820312	65.53866577148438	-39.68696212768555	1567.848754882812	-14.38520908355713	-91.73349761962891	1564.316772460938	101.7109069824219	-163.7235717773438	1522.1435546875	-87.12351226806641	-33.59630584716797	892.3673095703125	-155.7459106445312	-252.6441802978516	837.787353515625	149.0309143066406	-137.2706298828125	896.6740112304688	156.0765380859375	-4.028588771820068	926.695068359375	-44.19982528686523	-0.9422436356544495	473.9716796875	-54.37993240356445	7.639077186584473	630.04638671875	-94.56443786621094	-81.83563232421875	46.64533233642578	-55.47985458374023	-14.86170387268066	317.9991149902344	-57.08130264282227	74.51952362060547	37.27946853637695	78.62606048583984	-10.39413928985596	41.58864212036133	78.46166229248047	19.15933227539062	41.53842926025391	-18.90132141113281	-148.9815368652344	43.75826263427734	-16.58291625976562	-162.7784881591797	461.7720947265625	161.3119812011719	-212.8878784179688	712.950439453125	168.4787902832031	-445.9826965332031	199.1447448730469	-9.086784362792969	-215.8938293457031	348.698486328125	124.4538116455078	-325.2838134765625	55.45304107666016	34.95561599731445	-336.4939270019531	94.17205810546875	-24.59053993225098	-406.1138000488281	110.8858871459961	44.45775985717773	-447.0395812988281	231.3537445068359	-71.42107391357422	
249	2.48	-267.3418273925781	941.2700805664062	-7.400433540344238	-195.2881774902344	952.1065063476562	-107.8658676147461	-234.2138824462891	1023.915649414062	-55.38931274414062	-46.70705413818359	1193.222045898438	49.85950088500977	-250.1748046875	1127.786743164062	-54.76779556274414	-223.0058746337891	1358.600952148438	-32.70653533935547	-82.12772369384766	1286.486572265625	32.75275039672852	-299.7958679199219	1234.103149414062	23.14712142944336	-206.6145935058594	1305.34619140625	-121.8874130249023	-91.22908782958984	1354.556274414062	-147.8185577392578	-80.30814361572266	1229.1650390625	-210.5701293945312	-72.56392669677734	1019.745971679688	-236.0451354980469	-163.7596282958984	1014.58642578125	-197.0803375244141	-26.72729110717773	820.9408569335938	-179.9744110107422	-80.87905883789062	798.0416870117188	-253.9061126708984	-63.32936859130859	933.7061157226562	-236.7668304443359	-37.97660446166992	664.9449462890625	-188.5810241699219	-64.5382080078125	741.1517333984375	-244.3983154296875	-15.30300235748291	744.7084350585938	-202.8016510009766	-238.8744354248047	1352.415771484375	124.7982788085938	-278.7368774414062	1283.756469726562	166.4874725341797	-295.6358947753906	1016.560119628906	204.6573181152344	-317.8875427246094	1001.892639160156	143.6656799316406	-201.2769775390625	814.7926635742188	238.1951904296875	-288.7547912597656	792.66455078125	224.4116821289062	-296.6545715332031	962.6708984375	212.7043914794922	-203.4244232177734	654.3238525390625	243.5265350341797	-206.0951995849609	721.7407836914062	266.3516845703125	-271.5155029296875	719.2589721679688	239.5227508544922	-208.3690948486328	1520.7763671875	69.71430206298828	-30.49266242980957	1568.710083007812	-9.852828979492188	-82.74793243408203	1565.060913085938	106.1472320556641	-154.603515625	1523.583984375	-82.91730499267578	-26.48136901855469	892.8087768554688	-152.6955871582031	-244.3281097412109	839.837890625	153.0352630615234	-129.1825866699219	898.9182739257812	159.1867523193359	3.853175401687622	927.6256713867188	-41.38999557495117	1.746642827987671	473.6865234375	-53.47563552856445	12.23702144622803	630.013916015625	-92.31684875488281	-81.91191864013672	46.64011001586914	-55.46760940551758	-13.42716121673584	317.8095397949219	-56.68223190307617	74.43897247314453	37.35402297973633	78.57759857177734	-10.4443941116333	41.58513641357422	78.42859649658203	19.13316535949707	41.53553009033203	-18.98678588867188	-149.0946960449219	43.73824691772461	-16.57980918884277	-147.0206756591797	465.253662109375	168.5935821533203	-202.9987335205078	715.4113159179688	173.5589752197266	-425.2431030273438	196.5241851806641	1.510491013526917	-198.5830535888672	352.3153076171875	133.6237030029297	-302.5050354003906	56.09146881103516	50.74078750610352	-313.7823791503906	93.09519958496094	-10.01592826843262	-384.2465515136719	110.8478393554688	57.94306564331055	-426.2571716308594	226.8356323242188	-61.91797637939453	
250	2.49	-259.74755859375	942.6522216796875	-3.624105930328369	-187.8878326416016	953.1854858398438	-104.2148818969727	-226.3654022216797	1025.290649414062	-52.56580352783203	-38.83446884155273	1194.33154296875	53.5819091796875	-242.0800323486328	1129.200073242188	-51.85023880004883	-214.5256195068359	1359.996826171875	-29.35714530944824	-74.10737609863281	1287.680786132812	36.59590148925781	-291.7292175292969	1235.614990234375	25.90686225891113	-197.8339691162109	1306.950073242188	-118.5759811401367	-82.29996490478516	1356.171997070312	-143.7810211181641	-70.47441864013672	1231.180419921875	-206.9603729248047	-61.17448806762695	1021.802368164062	-232.5319213867188	-153.1754913330078	1016.32421875	-195.5758056640625	-16.9797248840332	822.4646606445312	-176.0027923583984	-68.50321197509766	800.5301513671875	-252.4999542236328	-51.76507186889648	935.8699340820312	-233.5796966552734	-28.13639640808105	666.4589233398438	-187.8165893554688	-52.19938659667969	743.8933715820312	-243.5503845214844	-4.81341028213501	746.500732421875	-199.6086883544922	-231.1038818359375	1353.688720703125	128.006103515625	-271.5098876953125	1285.21337890625	169.30810546875	-290.6479797363281	1018.1005859375	206.5095977783203	-312.3584899902344	1003.786987304688	145.2320251464844	-198.0890502929688	815.29150390625	239.9871978759766	-285.6173400878906	794.0070190429688	225.4695739746094	-292.1160888671875	964.2205810546875	214.3887176513672	-201.7384033203125	654.7965087890625	244.5753326416016	-203.94091796875	722.109375	267.6869201660156	-269.2353820800781	720.395751953125	240.4136657714844	-199.6107788085938	1522.057250976562	73.94584655761719	-21.32681274414062	1569.416870117188	-5.235925197601318	-73.80287170410156	1565.600341796875	110.6739501953125	-145.5824890136719	1525.059936523438	-78.64157867431641	-19.55778121948242	893.144287109375	-149.7039642333984	-235.8475036621094	841.9830932617188	157.3840942382812	-120.9470596313477	901.101318359375	162.2460784912109	11.70760440826416	928.4724731445312	-38.72489929199219	4.415217399597168	473.3590393066406	-52.6650390625	16.68389511108398	629.9008178710938	-90.19327545166016	-81.98012542724609	46.63872146606445	-55.45177459716797	-12.04258155822754	317.6153869628906	-56.33901214599609	74.37433624267578	37.4095458984375	78.52210235595703	-10.48571872711182	41.58636093139648	78.39432525634766	19.12948226928711	41.51895523071289	-19.07233238220215	-149.1928100585938	43.72178268432617	-16.57546234130859	-131.5572814941406	468.8945617675781	175.6818237304688	-192.9758453369141	717.9910278320312	178.8700103759766	-403.9902038574219	192.7271118164062	12.42650413513184	-181.3675689697266	355.693603515625	142.6388244628906	-278.7307739257812	56.33849716186523	66.90326690673828	-290.1558837890625	91.46045684814453	4.956106662750244	-361.5716857910156	109.952751159668	71.71302032470703	-405.0097045898438	221.0032501220703	-52.11859893798828	
251	2.5	-252.2000122070312	943.941650390625	0.3273792564868927	-180.5955810546875	954.13671875	-100.4247741699219	-218.5189208984375	1026.573364257812	-49.60056686401367	-30.96370697021484	1195.3779296875	57.18230438232422	-234.0314025878906	1130.483520507812	-48.82284164428711	-206.1631011962891	1361.293579101562	-25.99236297607422	-66.12662506103516	1288.820434570312	40.35903549194336	-283.7299499511719	1237.029174804688	28.73343658447266	-189.192626953125	1308.433837890625	-115.2373657226562	-73.57046508789062	1357.754150390625	-139.8089141845703	-60.79364395141602	1233.168090820312	-203.4042663574219	-49.92873764038086	1023.872863769531	-229.1461486816406	-142.617919921875	1017.981079101562	-193.9484252929688	-6.897491455078125	823.9915161132812	-172.463134765625	-56.34733963012695	802.8847045898438	-250.8729095458984	-40.33465957641602	938.0453491210938	-230.5177459716797	-18.29413414001465	667.966552734375	-186.7915649414062	-40.20026016235352	746.4318237304688	-242.3815155029297	5.710176467895508	748.1688842773438	-196.6235046386719	-223.3271331787109	1354.860961914062	131.2218627929688	-264.2808837890625	1286.583251953125	172.1518096923828	-285.7636413574219	1019.579162597656	208.2890472412109	-306.939697265625	1005.609008789062	146.7423400878906	-194.8807830810547	815.8634033203125	241.7698059082031	-282.4202880859375	795.2840576171875	226.5610656738281	-287.6874084472656	965.7168579101562	216.0076446533203	-199.7516479492188	655.3618774414062	245.6871337890625	-201.6073913574219	722.5667724609375	269.0521545410156	-266.784912109375	721.4978637695312	241.3589630126953	-190.9451599121094	1523.257446289062	78.21060180664062	-12.20814037322998	1569.966796875	-0.5364705324172974	-64.91900634765625	1565.919799804688	115.2850036621094	-136.6562042236328	1526.5439453125	-74.3084716796875	-12.78737449645996	893.380126953125	-146.7567901611328	-227.2140655517578	844.1376342773438	162.0279541015625	-112.5889892578125	903.149658203125	165.2741088867188	19.53932762145996	929.19677734375	-36.16707992553711	7.065071582794189	472.9810791015625	-51.98383712768555	20.98405265808105	629.6947021484375	-88.23855590820312	-82.03671264648438	46.64094543457031	-55.43151473999023	-10.72071361541748	317.4130859375	-56.08638381958008	74.32904815673828	37.44045257568359	78.45938873291016	-10.51080131530762	41.59289169311523	78.35704040527344	19.15079116821289	41.48219680786133	-19.15441131591797	-149.2747497558594	43.70359039306641	-16.5711612701416	-116.3742904663086	472.6027221679688	182.6209106445312	-182.8704833984375	720.6270141601562	184.3497467041016	-382.2242431640625	187.8751373291016	23.61268615722656	-164.2153778076172	358.7127380371094	151.4958190917969	-254.1080322265625	56.25794219970703	83.45346832275391	-265.6836853027344	89.35541534423828	20.33461570739746	-338.1966247558594	108.3292846679688	85.763671875	-383.2645263671875	213.9736022949219	-42.03668594360352	
